<?xml version="1.0" encoding="UTF-8" standalone="no"?>
<svg
   xmlns:dc="http://purl.org/dc/elements/1.1/"
   xmlns:cc="http://creativecommons.org/ns#"
   xmlns:rdf="http://www.w3.org/1999/02/22-rdf-syntax-ns#"
   xmlns:svg="http://www.w3.org/2000/svg"
   xmlns="http://www.w3.org/2000/svg"
   xmlns:sodipodi="http://sodipodi.sourceforge.net/DTD/sodipodi-0.dtd"
   xmlns:inkscape="http://www.inkscape.org/namespaces/inkscape"
   version="1.1"
   viewBox="-5 -10 68.75 87.5"
   id="svg8"
   sodipodi:docname="person.svg"
   width="68.75"
   height="87.5"
   inkscape:version="1.0.1 (3bc2e813f5, 2020-09-07)">
  <style
     id="style839"></style>
  <metadata
     id="metadata14">
    <rdf:RDF>
      <cc:Work
         rdf:about="">
        <dc:format>image/svg+xml</dc:format>
        <dc:type
           rdf:resource="http://purl.org/dc/dcmitype/StillImage" />
        <dc:title></dc:title>
      </cc:Work>
    </rdf:RDF>
  </metadata>
  <defs
     id="defs12" />
  <sodipodi:namedview
     pagecolor="#ffffff"
     bordercolor="#666666"
     borderopacity="1"
     objecttolerance="10"
     gridtolerance="10"
     guidetolerance="10"
     inkscape:pageopacity="0"
     inkscape:pageshadow="2"
     inkscape:window-width="3840"
     inkscape:window-height="2066"
     id="namedview10"
     showgrid="false"
     inkscape:zoom="7.4666667"
     inkscape:cx="55"
     inkscape:cy="67.5"
     inkscape:window-x="-11"
     inkscape:window-y="-11"
     inkscape:window-maximized="1"
     inkscape:current-layer="svg8" />
  <path
     d="m 29.375444,33.7504 c -5.8008,0 -11.367,-2.3047 -15.469,-6.4062 -4.1020003,-4.1015 -6.4062003,-9.668 -6.4062003,-15.469 0,-5.801 2.3047,-11.367 6.4062003,-15.469 4.1015,-4.102 9.668,-6.4062 15.469,-6.4062 5.801,0 11.367,2.3047 15.469,6.4062 4.102,4.1015 6.4062,9.668 6.4062,15.469 -0.0078,5.8008 -2.3125,11.359 -6.4141,15.461 -4.1016,4.1016 -9.6602,6.4062 -15.461,6.4141 z m 0,-37.5 c -4.1445,0 -8.1172,1.6445 -11.047,4.5781 -2.9336,2.9297 -4.5781,6.9023 -4.5781,11.047 0,4.1447 1.6445,8.1172 4.5781,11.047 2.9297,2.9336 6.9023,4.5781 11.047,4.5781 4.1447,0 8.1172,-1.6445 11.047,-4.5781 2.9336,-2.9297 4.5781,-6.9023 4.5781,-11.047 -0.0039,-4.1406 -1.6523,-8.1133 -4.582,-11.043 -2.9297,-2.9297 -6.9023,-4.5781 -11.043,-4.582 z m 0,81.25 c -9.6328,-0.0039 -19.25,-0.86719 -28.7270003,-2.5859 -3.2812,-0.59375 -5.6602,-3.457 -5.6484,-6.7891 0.00781,-8.2852 3.3047,-16.227 9.1641,-22.086 C 10.023544,40.18 17.965144,36.8832 26.250144,36.8753 h 6.25 c 8.2852,0.0078 16.227,3.3047 22.086,9.1641 5.8594,5.8594 9.1562,13.801 9.1641,22.086 0.0078,3.3203 -2.3594,6.1758 -5.625,6.7773 -9.4883,1.7227 -19.109,2.5938 -28.75,2.5977 z m -3.125,-34.375 c -6.6289,0.0078 -12.984,2.6445 -17.6680003,7.332 -4.6875,4.6836 -7.3242,11.039 -7.332,17.668 0.00781,0.30078 0.21875,0.55859 0.51172,0.625 18.2700003,3.2969 36.9800003,3.2969 55.2460003,0 0.29297,-0.0625 0.5,-0.32422 0.49219,-0.625 -0.0078,-6.6289 -2.6445,-12.984 -7.332,-17.668 -4.6836,-4.6875 -11.039,-7.3242 -17.668,-7.332 z"
     id="path2"
     style="fill:#fca311;fill-opacity:1" />
</svg>
