<?xml version="1.0" encoding="UTF-8" standalone="no"?>
<svg
   xmlns:dc="http://purl.org/dc/elements/1.1/"
   xmlns:cc="http://creativecommons.org/ns#"
   xmlns:rdf="http://www.w3.org/1999/02/22-rdf-syntax-ns#"
   xmlns:svg="http://www.w3.org/2000/svg"
   xmlns="http://www.w3.org/2000/svg"
   xmlns:sodipodi="http://sodipodi.sourceforge.net/DTD/sodipodi-0.dtd"
   xmlns:inkscape="http://www.inkscape.org/namespaces/inkscape"
   width="500"
   height="152.84"
   viewBox="0 0 132.29166 40.438917"
   version="1.1"
   id="svg8"
   inkscape:version="1.0.1 (3bc2e813f5, 2020-09-07)"
   sodipodi:docname="retrit.svg">
  <style
     id="style833"></style>
  <defs
     id="defs2" />
  <sodipodi:namedview
     id="base"
     pagecolor="#ffffff"
     bordercolor="#666666"
     borderopacity="1.0"
     inkscape:pageopacity="0.0"
     inkscape:pageshadow="2"
     inkscape:zoom="1.979899"
     inkscape:cx="390.14253"
     inkscape:cy="-47.595455"
     inkscape:document-units="mm"
     inkscape:current-layer="text837"
     inkscape:document-rotation="0"
     showgrid="false"
     units="px"
     inkscape:window-width="3840"
     inkscape:window-height="2066"
     inkscape:window-x="-11"
     inkscape:window-y="-11"
     inkscape:window-maximized="1" />
  <metadata
     id="metadata5">
    <rdf:RDF>
      <cc:Work
         rdf:about="">
        <dc:format>image/svg+xml</dc:format>
        <dc:type
           rdf:resource="http://purl.org/dc/dcmitype/StillImage" />
        <dc:title></dc:title>
      </cc:Work>
    </rdf:RDF>
  </metadata>
  <g
     inkscape:label="Layer 1"
     inkscape:groupmode="layer"
     id="layer1">
    <g
       aria-label="retr.it"
       id="text837"
       style="font-style:normal;font-weight:normal;font-size:54.1294px;line-height:1.25;font-family:sans-serif;fill:#606c38;fill-opacity:1;stroke:none;stroke-width:1.35324">
      <path
         d="m 19.735116,8.7654249 c -3.299562,0 -6.3501,1.6809081 -8.529057,4.8559591 h -0.06226 V 9.3879838 H -7.4386597e-8 V 39.893368 H 11.143804 V 26.570609 c 0,-3.548586 1.992188,-5.976566 6.287844,-5.976566 0.498048,0 1.431886,0 2.365724,0.06226 V 8.7654249 Z"
         style="font-style:normal;font-variant:normal;font-weight:900;font-stretch:normal;font-size:54.1294px;font-family:'Averta Std';-inkscape-font-specification:'Averta Std, Heavy';font-variant-ligatures:normal;font-variant-caps:normal;font-variant-numeric:normal;font-variant-east-asian:normal;fill:#dda15e;fill-opacity:1;stroke-width:1.5564"
         id="path839" />
      <path
         d="m 47.043369,25.83929 c 0,-8.28386 -5.917043,-14.14455 -13.862786,-14.14455 -8.340213,0 -14.313608,6.029748 -14.313608,14.369961 0,8.50927 6.198807,14.369961 14.482666,14.369961 5.860691,0 10.256208,-2.366817 12.623025,-5.240809 l -5.184457,-5.747985 c -1.915995,1.972348 -3.888342,3.043051 -6.367865,3.043051 -2.930345,0 -5.240809,-1.296115 -5.691631,-3.944695 h 18.089245 c 0.112705,-0.676234 0.225411,-2.028701 0.225411,-2.704934 z M 33.124231,19.358719 c 2.141405,0 3.719283,1.352467 4.170105,3.719284 h -8.565623 c 0.450822,-2.366817 2.141406,-3.719284 4.395518,-3.719284 z"
         style="font-style:normal;font-variant:normal;font-weight:900;font-stretch:normal;font-size:54.1294px;font-family:'Averta Std';-inkscape-font-specification:'Averta Std, Heavy';font-variant-ligatures:normal;font-variant-caps:normal;font-variant-numeric:normal;font-variant-east-asian:normal;fill:#dda15e;fill-opacity:1;stroke-width:1.40882"
         id="path841" />
      <path
         d="m 57.459964,40.434662 c 4.202602,0 6.333498,-0.887874 8.523587,-2.130898 l -2.604429,-7.339755 c -0.76949,0.295958 -1.716556,0.414341 -2.130898,0.414341 -1.716555,0 -1.894129,-1.538981 -1.894129,-2.900388 v -9.233886 h 6.274307 V 10.838872 H 59.354095 V 0.65792038 L 48.758801,1.7233687 v 9.1155033 h -3.137153 v 8.405204 h 3.137153 v 11.483166 c 0,6.629458 3.788262,9.70742 8.701163,9.70742 z"
         style="font-style:normal;font-variant:normal;font-weight:900;font-stretch:normal;font-size:54.1294px;font-family:'Averta Std';-inkscape-font-specification:'Averta Std, Heavy';font-variant-ligatures:normal;font-variant-caps:normal;font-variant-numeric:normal;font-variant-east-asian:normal;fill:#dda15e;fill-opacity:1;stroke-width:1.47979"
         id="path843" />
      <path
         d="m 88.707812,10.154309 c -3.15234,0 -6.066768,1.605908 -8.148502,4.639293 h -0.05948 V 10.74909 H 69.853248 V 39.893368 H 80.499831 V 27.165051 c 0,-3.390253 1.9033,-5.7099 6.00729,-5.7099 0.475825,0 1.367996,0 2.260168,0.05948 V 10.154309 Z"
         style="font-style:normal;font-variant:normal;font-weight:900;font-stretch:normal;font-size:54.1294px;font-family:'Averta Std';-inkscape-font-specification:'Averta Std, Heavy';font-variant-ligatures:normal;font-variant-caps:normal;font-variant-numeric:normal;font-variant-east-asian:normal;fill:#dda15e;fill-opacity:1;stroke-width:1.48696"
         id="path845" />
      <path
         d="m 91.567541,38.029236 c 3.684659,0 6.743623,-2.989441 6.743623,-6.674101 0,-3.615138 -3.058964,-6.604579 -6.743623,-6.604579 -3.754181,0 -6.813145,2.989441 -6.813145,6.604579 0,3.68466 3.058964,6.674101 6.813145,6.674101 z"
         style="font-style:normal;font-variant:normal;font-weight:900;font-stretch:normal;font-size:54.1294px;font-family:'Averta Std';-inkscape-font-specification:'Averta Std, Heavy';font-variant-ligatures:normal;font-variant-caps:normal;font-variant-numeric:normal;font-variant-east-asian:normal;fill:#dda15e;fill-opacity:1;stroke-width:1.73805"
         id="path847" />
      <path
         d="m 105.71416,10.392846 c 3.24776,0 5.52119,-2.2193057 5.52119,-5.250552 0,-2.9229875 -2.27343,-5.1422928136291 -5.52119,-5.1422928136291 -3.24777,0 -5.57533,2.2734347136291 -5.57533,5.1422928136291 0,2.9771169 2.32756,5.250552 5.57533,5.250552 z m -4.87165,29.500522 h 9.68916 V 13.369963 h -9.68916 z"
         style="font-style:normal;font-variant:normal;font-weight:900;font-stretch:normal;font-size:54.1294px;font-family:'Averta Std';-inkscape-font-specification:'Averta Std, Heavy';font-variant-ligatures:normal;font-variant-caps:normal;font-variant-numeric:normal;font-variant-east-asian:normal;fill:#dda15e;fill-opacity:1;stroke-width:1.35324"
         id="path849" />
      <path
         d="m 123.78833,40.434662 c 4.19263,0 6.31845,-0.885764 8.50334,-2.125835 l -2.59824,-7.322319 c -0.76766,0.295254 -1.71247,0.413357 -2.12584,0.413357 -1.71247,0 -1.88963,-1.535326 -1.88963,-2.893498 v -9.21195 h 6.25941 v -8.385236 h -6.25941 V 0.75241443 L 115.10785,1.8153317 v 9.0938493 h -3.12971 v 8.385236 h 3.12971 v 11.455886 c 0,6.613709 3.77926,9.684359 8.68048,9.684359 z"
         style="font-style:normal;font-variant:normal;font-weight:900;font-stretch:normal;font-size:54.1294px;font-family:'Averta Std';-inkscape-font-specification:'Averta Std, Heavy';font-variant-ligatures:normal;font-variant-caps:normal;font-variant-numeric:normal;font-variant-east-asian:normal;fill:#dda15e;fill-opacity:1;stroke-width:1.47628"
         id="path851" />
    </g>
  </g>
</svg>
