<?xml version="1.0" encoding="UTF-8" standalone="no"?>
<svg
   xmlns:dc="http://purl.org/dc/elements/1.1/"
   xmlns:cc="http://creativecommons.org/ns#"
   xmlns:rdf="http://www.w3.org/1999/02/22-rdf-syntax-ns#"
   xmlns:svg="http://www.w3.org/2000/svg"
   xmlns="http://www.w3.org/2000/svg"
   xmlns:sodipodi="http://sodipodi.sourceforge.net/DTD/sodipodi-0.dtd"
   xmlns:inkscape="http://www.inkscape.org/namespaces/inkscape"
   width="300"
   height="280"
   viewBox="0 0 79.374998 74.083335"
   version="1.1"
   id="svg8"
   inkscape:version="1.0.1 (3bc2e813f5, 2020-09-07)"
   sodipodi:docname="retrit.svg">
  <style
     id="style833"></style>
  <defs
     id="defs2">
    <inkscape:path-effect
       effect="fillet_chamfer"
       id="path-effect906"
       is_visible="true"
       lpeversion="1"
       satellites_param="F,0,0,1,0,5.55625,0,1 @ F,0,0,1,0,5.55625,0,1 @ F,0,0,1,0,5.55625,0,1 @ F,0,0,1,0,5.55625,0,1 @ F,0,0,1,0,5.55625,0,1"
       unit="px"
       method="auto"
       mode="F"
       radius="21"
       chamfer_steps="1"
       flexible="false"
       use_knot_distance="true"
       apply_no_radius="true"
       apply_with_radius="true"
       only_selected="false"
       hide_knots="false" />
  </defs>
  <sodipodi:namedview
     id="base"
     pagecolor="#ffffff"
     bordercolor="#666666"
     borderopacity="1.0"
     inkscape:pageopacity="0.0"
     inkscape:pageshadow="2"
     inkscape:zoom="2.8"
     inkscape:cx="207.67075"
     inkscape:cy="219.5718"
     inkscape:document-units="mm"
     inkscape:current-layer="g904"
     inkscape:document-rotation="0"
     showgrid="false"
     showguides="false"
     inkscape:guide-bbox="true"
     units="px"
     inkscape:window-width="3840"
     inkscape:window-height="2066"
     inkscape:window-x="-11"
     inkscape:window-y="-11"
     inkscape:window-maximized="1">
    <sodipodi:guide
       position="34.395832,209.6875"
       orientation="1,0"
       id="guide835" />
    <sodipodi:guide
       position="129.64583,119.72916"
       orientation="1,0"
       id="guide837" />
    <sodipodi:guide
       position="34.395832,119.72916"
       orientation="0,-1"
       id="guide839" />
    <sodipodi:guide
       position="34.395832,209.6875"
       orientation="0,-1"
       id="guide841" />
  </sodipodi:namedview>
  <metadata
     id="metadata5">
    <rdf:RDF>
      <cc:Work
         rdf:about="">
        <dc:format>image/svg+xml</dc:format>
        <dc:type
           rdf:resource="http://purl.org/dc/dcmitype/StillImage" />
        <dc:title></dc:title>
      </cc:Work>
    </rdf:RDF>
  </metadata>
  <g
     inkscape:label="Layer 1"
     inkscape:groupmode="layer"
     id="layer1">
    <g
       id="g904"
       transform="matrix(0.83333333,0,0,0.83333333,-1.750908,-28.21104)">
      <g
         id="g911"
         transform="matrix(1,0,0,1.004309,-32.294741,-55.281455)">
        <path
           style="fill:#606c38;fill-opacity:1;stroke:none;stroke-width:0.264583px;stroke-linecap:butt;stroke-linejoin:miter;stroke-opacity:1"
           d="M 77.163791,90.010853 39.252869,111.07248 a 9.4429279,9.4429279 120.4727 0 0 -4.857036,8.2546 l -3e-6,52.38751 a 5.5562497,5.5562497 45.000001 0 0 5.55625,5.55625 h 84.1375 a 5.55625,5.55625 135 0 0 5.55625,-5.55625 v -52.38751 a 9.4429265,9.4429265 59.5273 0 0 -4.85704,-8.2546 L 86.877864,90.010852 a 10.001251,10.001251 180 0 0 -9.714073,10e-7 z"
           id="path892"
           inkscape:path-effect="#path-effect906"
           inkscape:original-d="m 82.020827,87.312499 -47.624994,26.458331 -3e-6,63.50001 h 95.25 v -63.50001 z" />
        <g
           aria-label="r"
           id="text896"
           style="font-style:normal;font-variant:normal;font-weight:normal;font-stretch:normal;font-size:119.415px;line-height:1.25;font-family:'High Tower Text';-inkscape-font-specification:'High Tower Text, Normal';font-variant-ligatures:normal;font-variant-caps:normal;font-variant-numeric:normal;font-variant-east-asian:normal;fill:#ffffff;fill-opacity:1;stroke:none;stroke-width:0.995127">
          <path
             d="m 82.345584,125.73872 c 0,4.70352 -1.360522,7.05528 -4.081567,7.05528 -0.427593,0 -1.846423,-0.27211 -4.256492,-0.81632 -2.410068,-0.54421 -2.588512,-1.05377 -5.306037,-0.81631 -5.021019,0.43874 -6.530508,2.93484 -6.530508,8.80452 v 17.20089 c 0,2.02135 0.699697,3.45962 2.099092,4.3148 0.816313,0.50534 2.857097,1.1856 6.122351,2.04079 1.749243,0.42759 2.623864,1.08842 2.623864,1.98247 0,1.04955 -0.155488,1.6715 -0.466464,1.86586 -0.272105,0.23323 -0.991238,0.29154 -2.1574,0.17493 -8.551856,-0.89406 -15.315596,-0.93293 -20.291221,-0.11662 -1.554883,0.27211 -2.546121,0.27211 -2.973714,0 -0.349849,-0.23323 -0.524773,-0.91349 -0.524773,-2.04078 0,-1.04955 1.068982,-1.8853 3.206946,-2.50725 2.176836,-0.62195 3.265254,-2.48781 3.265254,-5.59758 v -18.7169 c 0,-2.44894 -0.330413,-4.101 -0.991238,-4.95619 -0.621953,-0.85519 -2.371196,-2.00191 -5.247729,-3.44018 l -0.349849,-0.17492 c -0.777441,-0.38872 -1.166162,-0.93293 -1.166162,-1.63263 0,-0.77744 0.796878,-1.43827 2.390633,-1.98248 2.682173,-0.93293 5.131113,-2.25458 7.346821,-3.96495 1.826987,-1.43827 2.993149,-2.1574 3.498486,-2.1574 1.399395,0 2.235144,1.20504 2.507249,3.61511 0.349849,3.07089 0.758005,4.60634 1.22447,4.60634 0.03887,0 2.215709,-1.4577 6.530508,-4.37311 2.837661,-1.90473 5.947427,-2.8571 9.329297,-2.8571 2.798789,0 4.198183,1.49658 4.198183,4.48973 z"
             style="font-style:normal;font-variant:normal;font-weight:normal;font-stretch:normal;font-size:119.415px;font-family:'High Tower Text';-inkscape-font-specification:'High Tower Text, Normal';font-variant-ligatures:normal;font-variant-caps:normal;font-variant-numeric:normal;font-variant-east-asian:normal;fill:#ffffff;stroke-width:0.995127"
             id="path898"
             sodipodi:nodetypes="ssssssccsccccscsscsssccscscss" />
        </g>
      </g>
    </g>
  </g>
</svg>
