<?xml version="1.0" encoding="UTF-8" standalone="no"?>
<svg
   xmlns:dc="http://purl.org/dc/elements/1.1/"
   xmlns:cc="http://creativecommons.org/ns#"
   xmlns:rdf="http://www.w3.org/1999/02/22-rdf-syntax-ns#"
   xmlns:svg="http://www.w3.org/2000/svg"
   xmlns="http://www.w3.org/2000/svg"
   xmlns:sodipodi="http://sodipodi.sourceforge.net/DTD/sodipodi-0.dtd"
   xmlns:inkscape="http://www.inkscape.org/namespaces/inkscape"
   width="300"
   height="280"
   viewBox="0 0 79.374998 74.083335"
   version="1.1"
   id="svg8"
   inkscape:version="1.0.1 (3bc2e813f5, 2020-09-07)"
   sodipodi:docname="retrit.svg">
  <style
     id="style833"></style>
  <defs
     id="defs2">
    <inkscape:path-effect
       effect="fillet_chamfer"
       id="path-effect906"
       is_visible="true"
       lpeversion="1"
       satellites_param="F,0,0,1,0,5.55625,0,1 @ F,0,0,1,0,5.55625,0,1 @ F,0,0,1,0,5.55625,0,1 @ F,0,0,1,0,5.55625,0,1 @ F,0,0,1,0,5.55625,0,1"
       unit="px"
       method="auto"
       mode="F"
       radius="21"
       chamfer_steps="1"
       flexible="false"
       use_knot_distance="true"
       apply_no_radius="true"
       apply_with_radius="true"
       only_selected="false"
       hide_knots="false" />
  </defs>
  <sodipodi:namedview
     id="base"
     pagecolor="#ffffff"
     bordercolor="#666666"
     borderopacity="1.0"
     inkscape:pageopacity="0.0"
     inkscape:pageshadow="2"
     inkscape:zoom="1.979899"
     inkscape:cx="113.08851"
     inkscape:cy="254.69531"
     inkscape:document-units="mm"
     inkscape:current-layer="layer4"
     inkscape:document-rotation="0"
     showgrid="false"
     showguides="false"
     inkscape:guide-bbox="true"
     units="px"
     inkscape:window-width="3840"
     inkscape:window-height="2066"
     inkscape:window-x="-11"
     inkscape:window-y="-11"
     inkscape:window-maximized="1">
    <sodipodi:guide
       position="34.395832,209.6875"
       orientation="1,0"
       id="guide835" />
    <sodipodi:guide
       position="129.64583,119.72916"
       orientation="1,0"
       id="guide837" />
    <sodipodi:guide
       position="34.395832,119.72916"
       orientation="0,-1"
       id="guide839" />
    <sodipodi:guide
       position="34.395832,209.6875"
       orientation="0,-1"
       id="guide841" />
  </sodipodi:namedview>
  <metadata
     id="metadata5">
    <rdf:RDF>
      <cc:Work
         rdf:about="">
        <dc:format>image/svg+xml</dc:format>
        <dc:type
           rdf:resource="http://purl.org/dc/dcmitype/StillImage" />
        <dc:title></dc:title>
      </cc:Work>
    </rdf:RDF>
  </metadata>
  <g
     inkscape:label="Layer 1"
     inkscape:groupmode="layer"
     id="layer1">
    <path
       style="fill:#606c38;fill-opacity:1;stroke:none;stroke-width:0.22096px;stroke-linecap:butt;stroke-linejoin:miter;stroke-opacity:1"
       d="M 34.8354,1.5022466 4.8520992,18.231413 A 9.4626991,9.4626991 120.42035 0 0 1.7316227e-6,26.494888 L -2.4562995e-7,68.527085 A 5.5562497,5.5562497 45.000001 0 0 5.5562495,74.083335 l 68.2624995,0 a 5.55625,5.55625 135 0 0 5.55625,-5.55625 V 26.494888 A 9.4626978,9.4626978 59.579652 0 0 74.522902,18.231413 L 44.539594,1.5022462 a 9.9583401,9.9583401 180 0 0 -9.704194,4e-7 z"
       id="path892"
       inkscape:path-effect="#path-effect906"
       inkscape:original-d="M 39.687497,-1.2049784 1.9929964e-6,20.938638 -5.0700363e-7,74.083335 H 79.374999 V 20.938638 Z" />
  </g>
  <g
     inkscape:groupmode="layer"
     id="layer4"
     inkscape:label="chinese"
     style="display:none">
    <path
       d="m 26.330382,22.994567 h 4.321579 q 1.964358,0.392862 0.196708,1.571491 v 8.053872 q 1.375024,18.857854 20.036458,26.911727 l -2.35722,4.910897 Q 34.973823,58.549476 29.277173,43.031037 25.152033,57.763734 10.615746,64.442554 L 7.6692319,60.120965 Q 26.33062,52.852837 26.33062,33.209238 Z"
       style="font-style:normal;font-weight:normal;font-size:10.5833px;line-height:1.25;font-family:sans-serif;fill:#ffffff;fill-opacity:1;stroke:none;stroke-width:1.2572"
       id="path929" />
    <path
       d="m 48.921691,23.300129 h 4.321579 q 1.964359,0.392862 0.196708,1.57149 v 8.053873 q 1.375025,18.857854 20.03646,26.911726 l -2.357221,4.910898 Q 57.565133,58.855039 51.868482,43.336599 47.743342,58.069296 33.207056,64.748116 L 30.260541,60.426527 Q 48.921929,53.158398 48.921929,33.514801 Z"
       style="font-style:normal;font-weight:normal;font-size:10.5833px;line-height:1.25;font-family:sans-serif;fill:#ffffff;fill-opacity:1;stroke:none;stroke-width:1.2572"
       id="path929-6" />
  </g>
  <g
     inkscape:groupmode="layer"
     id="layer3"
     inkscape:label="r"
     style="display:none">
    <g
       aria-label="r"
       id="text896"
       style="font-style:normal;font-variant:normal;font-weight:normal;font-stretch:normal;font-size:119.415px;line-height:1.25;font-family:'High Tower Text';-inkscape-font-specification:'High Tower Text, Normal';font-variant-ligatures:normal;font-variant-caps:normal;font-variant-numeric:normal;font-variant-east-asian:normal;fill:#ffffff;fill-opacity:1;stroke:none;stroke-width:0.995127"
       transform="matrix(0.83333333,0,0,0.83692415,-28.663191,-74.278919)">
      <path
         d="m 82.345584,125.73872 c 0,4.70352 -1.360522,7.05528 -4.081567,7.05528 -0.427593,0 -1.846423,-0.27211 -4.256492,-0.81632 -2.410068,-0.54421 -2.588512,-1.05377 -5.306037,-0.81631 -5.021019,0.43874 -6.530508,2.93484 -6.530508,8.80452 v 17.20089 c 0,2.02135 0.699697,3.45962 2.099092,4.3148 0.816313,0.50534 2.857097,1.1856 6.122351,2.04079 1.749243,0.42759 2.623864,1.08842 2.623864,1.98247 0,1.04955 -0.155488,1.6715 -0.466464,1.86586 -0.272105,0.23323 -0.991238,0.29154 -2.1574,0.17493 -8.551856,-0.89406 -15.315596,-0.93293 -20.291221,-0.11662 -1.554883,0.27211 -2.546121,0.27211 -2.973714,0 -0.349849,-0.23323 -0.524773,-0.91349 -0.524773,-2.04078 0,-1.04955 1.068982,-1.8853 3.206946,-2.50725 2.176836,-0.62195 3.265254,-2.48781 3.265254,-5.59758 v -18.7169 c 0,-2.44894 -0.330413,-4.101 -0.991238,-4.95619 -0.621953,-0.85519 -2.371196,-2.00191 -5.247729,-3.44018 l -0.349849,-0.17492 c -0.777441,-0.38872 -1.166162,-0.93293 -1.166162,-1.63263 0,-0.77744 0.796878,-1.43827 2.390633,-1.98248 2.682173,-0.93293 5.131113,-2.25458 7.346821,-3.96495 1.826987,-1.43827 2.993149,-2.1574 3.498486,-2.1574 1.399395,0 2.235144,1.20504 2.507249,3.61511 0.349849,3.07089 0.758005,4.60634 1.22447,4.60634 0.03887,0 2.215709,-1.4577 6.530508,-4.37311 2.837661,-1.90473 5.947427,-2.8571 9.329297,-2.8571 2.798789,0 4.198183,1.49658 4.198183,4.48973 z"
         style="font-style:normal;font-variant:normal;font-weight:normal;font-stretch:normal;font-size:119.415px;font-family:'High Tower Text';-inkscape-font-specification:'High Tower Text, Normal';font-variant-ligatures:normal;font-variant-caps:normal;font-variant-numeric:normal;font-variant-east-asian:normal;fill:#ffffff;stroke-width:0.995127"
         id="path898"
         sodipodi:nodetypes="ssssssccsccccscsscsssccscscss" />
    </g>
  </g>
</svg>
