<?xml version="1.0" encoding="UTF-8" standalone="no"?>
<svg
   xmlns:dc="http://purl.org/dc/elements/1.1/"
   xmlns:cc="http://creativecommons.org/ns#"
   xmlns:rdf="http://www.w3.org/1999/02/22-rdf-syntax-ns#"
   xmlns:svg="http://www.w3.org/2000/svg"
   xmlns="http://www.w3.org/2000/svg"
   xmlns:sodipodi="http://sodipodi.sourceforge.net/DTD/sodipodi-0.dtd"
   xmlns:inkscape="http://www.inkscape.org/namespaces/inkscape"
   width="80"
   height="76.32"
   viewBox="0 0 21.166666 20.193"
   version="1.1"
   id="svg8"
   inkscape:version="1.0.1 (3bc2e813f5, 2020-09-07)"
   sodipodi:docname="starsolid.svg">
  <style
     id="style833"></style>
  <defs
     id="defs2" />
  <sodipodi:namedview
     id="base"
     pagecolor="#ffffff"
     bordercolor="#666666"
     borderopacity="1.0"
     inkscape:pageopacity="0.0"
     inkscape:pageshadow="2"
     inkscape:zoom="8.2610442"
     inkscape:cx="114.65529"
     inkscape:cy="68.229975"
     inkscape:document-units="mm"
     inkscape:current-layer="g852"
     inkscape:document-rotation="0"
     showgrid="false"
     units="px"
     inkscape:window-width="3840"
     inkscape:window-height="2066"
     inkscape:window-x="-11"
     inkscape:window-y="-11"
     inkscape:window-maximized="1" />
  <metadata
     id="metadata5">
    <rdf:RDF>
      <cc:Work
         rdf:about="">
        <dc:format>image/svg+xml</dc:format>
        <dc:type
           rdf:resource="http://purl.org/dc/dcmitype/StillImage" />
        <dc:title></dc:title>
      </cc:Work>
    </rdf:RDF>
  </metadata>
  <g
     inkscape:label="Layer 1"
     inkscape:groupmode="layer"
     id="layer1">
    <g
       id="g852"
       transform="matrix(0.26458333,0,0,0.26458333,126.42461,146.12683)">
      <path
         d="m -459.20657,-503.41639 -4.2188,24.621 c -0.16016,0.89844 0.21875,1.8203 0.96094,2.3594 0.73828,0.53906 1.7305,0.60938 2.5391,0.17969 l 22.098,-11.617 22.109,11.621 c 0.35156,0.19141 0.73828,0.28125 1.1211,0.28125 0.5,0 1,-0.16016 1.4219,-0.46094 0.73828,-0.53906 1.1094,-1.4492 0.96094,-2.3594 l -4.2188,-24.621 17.891,-17.441 c 0.66016,-0.64062 0.89062,-1.6016 0.60938,-2.4688 -0.28125,-0.87109 -1.0391,-1.5117 -1.9492,-1.6406 l -24.719,-3.5898 -11.059,-22.398 c -0.41016,-0.82031 -1.2383,-1.3398 -2.1602,-1.3398 -0.92187,0 -1.75,0.51953 -2.1602,1.3398 l -11.059,22.398 -24.719,3.5898 c -0.91016,0.12891 -1.6602,0.76953 -1.9492,1.6406 -0.28125,0.87109 -0.0508,1.8281 0.60938,2.4688 z"
         id="path835"
         style="fill:#fca311;fill-opacity:1"
         sodipodi:nodetypes="ccccccsccccccccscccccc" />
    </g>
  </g>
</svg>
