<?xml version="1.0" encoding="UTF-8" standalone="no"?>
<svg
   xmlns:dc="http://purl.org/dc/elements/1.1/"
   xmlns:cc="http://creativecommons.org/ns#"
   xmlns:rdf="http://www.w3.org/1999/02/22-rdf-syntax-ns#"
   xmlns:svg="http://www.w3.org/2000/svg"
   xmlns="http://www.w3.org/2000/svg"
   xmlns:sodipodi="http://sodipodi.sourceforge.net/DTD/sodipodi-0.dtd"
   xmlns:inkscape="http://www.inkscape.org/namespaces/inkscape"
   version="1.1"
   x="0px"
   y="0px"
   viewBox="0 0 96 96"
   xml:space="preserve"
   id="svg8"
   sodipodi:docname="tick.svg"
   width="96"
   height="96"
   inkscape:version="1.0.1 (3bc2e813f5, 2020-09-07)"><style
     id="style839"></style><metadata
     id="metadata14"><rdf:RDF><cc:Work
         rdf:about=""><dc:format>image/svg+xml</dc:format><dc:type
           rdf:resource="http://purl.org/dc/dcmitype/StillImage" /><dc:title></dc:title></cc:Work></rdf:RDF></metadata><defs
     id="defs12" /><sodipodi:namedview
     pagecolor="#ffffff"
     bordercolor="#666666"
     borderopacity="1"
     objecttolerance="10"
     gridtolerance="10"
     guidetolerance="10"
     inkscape:pageopacity="0"
     inkscape:pageshadow="2"
     inkscape:window-width="3840"
     inkscape:window-height="2066"
     id="namedview10"
     showgrid="false"
     inkscape:zoom="8.064"
     inkscape:cx="50"
     inkscape:cy="62.5"
     inkscape:window-x="-11"
     inkscape:window-y="-11"
     inkscape:window-maximized="1"
     inkscape:current-layer="svg8" /><path
     d="M 48,0 C 21.5,0 0,21.5 0,48 0,74.5 21.5,96 48,96 74.5,96 96,74.5 96,48 96,21.5 74.5,0 48,0 Z M 72.7,36.4 44.5,64.7 c -0.9,0.9 -2.2,1.5 -3.5,1.5 -1.3,0 -2.6,-0.5 -3.5,-1.5 L 23.3,50.5 c -2,-2 -2,-5.1 0,-7.1 2,-2 5.1,-2 7.1,0 L 41,54 65.7,29.3 c 2,-2 5.1,-2 7.1,0 1.9,2 1.9,5.1 -0.1,7.1 z"
     id="path2"
     style="fill:#fca311;fill-opacity:1" /></svg>
